<svg viewBox="0 0 16 16" xmlns="http://www.w3.org/2000/svg"><defs/><g><path d="M3,1 C2.7249,1 2.4771,1.1087 2.2929,1.2929 C2.1087,1.4771 2,1.7249 2,2 L2,4 C2,4.2751 2.1087,4.5229 2.2929,4.7071 C2.4771,4.8913 2.7249,5 3,5 L5,5 L5,4 L3,4 L3,2 L11,2 L11,4 L9,4 L9,5 L11,5 C11.2751,5 11.5229,4.8913 11.7071,4.7071 C11.8913,4.5229 12,4.2751 12,4 L12,2 C12,1.7249 11.8913,1.4771 11.7071,1.2929 C11.5229,1.1087 11.2751,1 11,1 L3,1 Z M8,8 L8,4 C8,3.4015 7.5531,3 7,3 C6.4469,3 6,3.4015 6,4 L6,11.05 L3.5,9.25 C2.9376,8.8026 2.2507,8.8435 1.8125,9.3125 C1.3692,9.787 1.3561,10.4968 1.875,11 L6,15 L12,15 C12.5502,15 13.0459,14.7826 13.4142,14.4142 C13.7826,14.0459 14,13.5502 14,13 L14,10 C14,9.4498 13.7826,8.9541 13.4142,8.5858 C13.0459,8.2174 12.5502,8 12,8 L8,8 Z" fill="rgb(142,239,151)" opacity="1"/></g></svg>